<svg width="26" height="26" viewBox="0 0 26 26" fill="none" xmlns="http://www.w3.org/2000/svg">
<path d="M13 0C10.4288 0 7.91543 0.762437 5.77759 2.19089C3.63975 3.61935 1.97351 5.64968 0.989572 8.02512C0.0056327 10.4006 -0.251811 13.0144 0.249797 15.5362C0.751405 18.0579 1.98953 20.3743 3.80762 22.1924C5.6257 24.0105 7.94208 25.2486 10.4638 25.7502C12.9856 26.2518 15.5994 25.9944 17.9749 25.0104C20.3503 24.0265 22.3806 22.3602 23.8091 20.2224C25.2376 18.0846 26 15.5712 26 13C26 9.55218 24.6304 6.24558 22.1924 3.80761C19.7544 1.36964 16.4478 0 13 0ZM13.0461 21.4352C11.594 22.137 9.34883 21.5332 9.74062 20.0711L11.8583 12.1677C12.5991 9.40299 10.5618 10.3095 9.64929 10.71C10.2074 9.87105 10.98 9.19689 11.8868 8.75757C13.3389 8.05575 15.5841 8.65952 15.1923 10.1216L13.0746 18.025C12.3338 20.7898 14.3711 19.8833 15.2836 19.4827C14.7256 20.3217 13.953 20.9959 13.0461 21.4352ZM16.3073 5.96272C16.2385 6.21971 16.095 6.45052 15.8949 6.62594C15.6949 6.80137 15.4474 6.91354 15.1836 6.94827C14.9198 6.983 14.6516 6.93874 14.413 6.82107C14.1744 6.7034 13.976 6.51761 13.843 6.2872C13.71 6.05679 13.6483 5.79211 13.6656 5.52662C13.683 5.26114 13.7788 5.00677 13.9407 4.79569C14.1027 4.58461 14.3236 4.4263 14.5755 4.34078C14.8275 4.25525 15.0991 4.24635 15.3561 4.31521C15.7007 4.40756 15.9945 4.63301 16.1729 4.94197C16.3513 5.25094 16.3997 5.61811 16.3073 5.96272Z" fill="#2E335B"/>
</svg>
